<?xml version="1.0" standalone="no"?>
<!DOCTYPE svg PUBLIC "-//W3C//DTD SVG 20010904//EN"
 "http://www.w3.org/TR/2001/REC-SVG-20010904/DTD/svg10.dtd">
<svg version="1.0" xmlns="http://www.w3.org/2000/svg"
 width="3000.000000pt" height="2000.000000pt" viewBox="0 0 3000.000000 2000.000000"
 preserveAspectRatio="xMidYMid meet">

<g transform="translate(0.000000,2000.000000) scale(0.100000,-0.100000)"
fill="#000000" stroke="none">
<path d="M0 10000 l0 -10000 15000 0 15000 0 0 10000 0 10000 -15000 0 -15000
0 0 -10000z m9693 4427 c6 3 7 2 4 -4 -5 -8 307 -288 683 -613 48 -41 194
-169 326 -285 131 -115 369 -325 529 -464 327 -287 1339 -1176 1604 -1409 96
-84 183 -158 193 -163 17 -9 18 33 18 1146 l0 1155 40 0 c22 0 40 -4 40 -10 0
-5 -13 -10 -30 -10 l-30 0 -2 -1157 -3 -1158 -24 3 c-14 1 -40 15 -59 30 -19
15 -41 32 -48 37 -8 6 -42 36 -76 67 -33 32 -65 55 -70 52 -4 -3 -7 -2 -6 3 4
12 -87 93 -106 93 -9 0 -15 3 -14 8 5 13 -45 61 -56 55 -6 -3 -8 -3 -4 1 8 9
-54 66 -71 66 -7 0 -9 5 -6 10 3 6 1 10 -4 10 -21 0 -26 3 -39 22 -7 10 -18
16 -23 12 -5 -3 -9 -2 -8 3 4 21 -3 33 -22 44 -15 8 -19 8 -15 0 4 -6 2 -11
-3 -11 -6 0 -11 7 -11 16 0 8 -4 12 -10 9 -6 -4 -7 1 -3 12 3 10 3 15 -1 11
-4 -3 -16 1 -26 10 -29 26 -45 37 -60 40 -17 4 -39 32 -40 52 0 12 -2 12 -9 2
-6 -10 -11 -9 -22 4 -9 12 -10 15 -1 10 6 -4 12 -3 12 2 0 13 -29 24 -42 15
-7 -3 -8 -1 -4 6 8 13 -10 41 -27 41 -6 0 -2 -7 9 -16 18 -14 18 -15 -4 -4
-14 7 -21 17 -18 25 3 10 0 12 -11 8 -13 -5 -15 -2 -10 11 4 10 3 15 -3 11 -6
-3 -10 -2 -10 4 0 6 -10 15 -22 21 -22 11 -22 10 -4 -4 11 -9 17 -18 14 -21
-3 -4 -15 6 -27 21 -11 15 -21 23 -21 18 0 -4 -6 1 -14 11 -8 11 -12 24 -9 28
3 5 -3 7 -13 5 -11 -2 -18 2 -16 10 1 6 -1 11 -5 11 -5 -1 -15 -1 -23 0 -13 1
-13 2 0 11 13 8 12 10 -3 10 -10 0 -16 4 -12 9 3 5 0 13 -6 17 -8 4 -9 3 -5
-4 10 -16 -5 -15 -27 2 -14 11 -15 15 -5 19 10 4 9 6 -2 6 -8 1 -26 11 -40 22
-14 11 -18 18 -10 14 8 -4 6 0 -5 9 -11 8 -26 20 -32 26 -7 6 -14 9 -17 8 -9
-7 -244 208 -241 220 3 7 0 10 -6 7 -13 -9 -41 14 -32 28 3 5 2 7 -3 4 -9 -5
-44 21 -188 147 -139 119 -162 140 -177 155 -9 9 -27 25 -40 36 -89 74 -181
153 -219 189 -69 64 -235 203 -260 216 -30 16 -57 5 -40 -15 8 -10 28 -150 51
-355 l38 -340 38 -32 c55 -48 227 -202 324 -289 46 -42 257 -230 469 -419 212
-189 428 -383 480 -430 87 -79 807 -726 960 -862 36 -32 69 -58 74 -58 5 0 7
144 4 331 -3 269 -1 327 9 313 10 -14 13 -95 13 -341 0 -362 1 -357 -68 -309
-20 14 -62 48 -91 75 -30 27 -59 47 -64 44 -6 -3 -7 -1 -4 4 8 13 -62 75 -74
67 -5 -3 -9 -1 -9 4 0 12 -43 62 -53 62 -5 0 -5 -6 -1 -12 4 -8 3 -10 -2 -5
-9 8 -10 12 -13 38 -1 8 -7 7 -18 -2 -12 -10 -15 -11 -9 -1 5 8 -7 27 -33 52
-39 38 -59 51 -46 30 3 -5 1 -10 -4 -10 -6 0 -11 6 -11 13 0 8 -9 24 -20 37
-11 13 -20 19 -20 15 0 -5 -19 11 -42 36 -24 24 -40 40 -35 34 4 -5 7 -14 7
-20 0 -5 -8 2 -18 18 -10 15 -22 25 -25 22 -4 -3 -5 -2 -2 2 9 12 -26 42 -43
36 -11 -5 -14 -2 -9 10 4 12 1 17 -11 17 -9 0 -22 10 -27 23 -6 12 -17 21 -26
21 -9 -1 -16 6 -15 15 0 9 -14 23 -31 32 -18 9 -30 19 -27 22 3 3 0 8 -7 13
-8 5 -10 3 -4 -6 5 -8 3 -11 -6 -8 -8 3 -13 13 -13 22 2 13 -3 15 -19 10 -20
-6 -20 -5 -8 10 12 14 12 16 -2 10 -9 -3 -25 3 -39 17 -18 17 -19 21 -5 16 11
-4 16 -3 12 3 -3 6 -13 10 -21 10 -9 0 -12 5 -8 11 4 7 0 9 -14 5 -15 -5 -20
-2 -18 11 1 12 -5 17 -16 15 -10 -2 -18 3 -18 11 0 8 -12 18 -27 22 -21 5 -24
8 -12 16 10 6 11 9 1 9 -17 0 -82 52 -82 66 0 6 -10 19 -22 30 l-23 19 20 -25
20 -25 -27 24 c-15 13 -25 27 -23 31 3 4 -3 7 -13 6 -9 0 -16 5 -14 12 1 8 -2
11 -7 8 -8 -5 -177 137 -248 210 -18 18 -33 31 -33 29 0 -2 -18 12 -40 32 -21
20 -36 41 -33 46 3 6 2 7 -4 4 -12 -8 -199 160 -195 175 1 5 -2 7 -7 3 -6 -3
-34 17 -63 45 -28 27 -54 50 -56 50 -4 0 -121 103 -182 160 -9 8 -32 28 -51
45 -19 16 -86 76 -149 132 -70 63 -123 103 -136 103 -15 0 -301 -281 -987
-973 -531 -535 -974 -984 -985 -997 -55 -71 -51 23 -52 -1393 0 -819 3 -1314
9 -1330 6 -14 21 -33 34 -42 22 -14 711 -16 7726 -15 l7701 0 0 -27 0 -28
-2452 2 c-1349 1 -3184 5 -4078 9 -2065 8 -5063 7 -6172 -3 -852 -8 -857 -8
-885 -29 -23 -18 -27 -28 -24 -55 1 -19 4 -144 6 -277 l2 -244 25 -24 25 -25
3799 -2 3799 -2 3 -28 3 -27 -945 0 c-676 1 -946 4 -946 12 0 8 49 10 163 6
89 -2 140 -1 112 3 -60 9 -4241 11 -4232 3 3 -4 32 -10 64 -14 78 -10 -287
-12 -3585 -19 l-2812 -6 0 33 0 32 659 0 c375 0 670 4 684 9 13 5 29 22 35 38
13 33 32 3832 19 3840 -8 5 -27 -13 -289 -261 l-168 -158 0 44 c0 43 2 47 92
129 216 196 331 314 351 358 18 40 20 74 25 388 l5 343 40 0 40 0 -7 -272 c-4
-150 -4 -297 0 -325 l7 -53 46 39 c25 21 93 83 151 137 58 55 308 288 555 519
1574 1470 1975 1847 1975 1854 0 9 -118 115 -398 359 -78 68 -146 121 -152
117 -6 -4 -10 15 -10 50 l0 56 37 -30 c20 -16 41 -27 46 -24z m3424 -929 c-1
-51 -3 -12 -3 87 0 99 2 141 3 93 2 -48 2 -129 0 -180z m2948 -495 c226 -393
424 -738 441 -765 l30 -49 148 258 c82 142 159 275 172 296 l24 37 361 0 c237
0 358 -3 354 -10 -3 -5 -12 -10 -19 -10 -11 0 -48 -60 -163 -260 -24 -41 -44
-68 -44 -60 -1 8 -4 2 -8 -15 -4 -17 -13 -29 -20 -27 -8 2 -10 -4 -6 -18 6
-18 4 -18 -19 5 -26 26 -26 28 -26 180 0 154 0 155 23 156 23 1 20 3 -28 15
-29 8 -29 8 15 15 25 3 -56 6 -180 5 -208 -1 -225 -2 -224 -18 1 -10 -2 -18
-7 -18 -5 0 -9 -7 -9 -15 0 -7 -8 -19 -17 -24 -15 -9 -16 -10 -2 -11 11 0 16
-10 16 -35 0 -23 -3 -31 -9 -23 -6 10 -8 9 -8 -4 0 -9 5 -20 10 -23 6 -3 10
-12 9 -18 0 -9 -2 -9 -6 1 -6 14 -29 16 -38 2 -3 -6 1 -7 9 -4 14 5 16 -53 18
-498 3 -458 1 -506 -14 -538 -10 -19 -25 -51 -34 -70 -9 -19 -21 -38 -28 -42
-6 -4 -8 -8 -4 -8 4 0 -9 -28 -29 -62 -20 -35 -72 -128 -115 -208 -44 -80 -88
-152 -98 -161 -11 -9 -17 -19 -15 -23 3 -3 3 -4 0 -2 -3 2 -82 135 -176 297
-121 210 -168 300 -165 315 4 13 -4 36 -19 58 -14 21 -22 42 -19 48 4 7 2 8
-4 4 -7 -4 -12 -1 -12 7 0 8 -9 26 -20 39 -10 14 -16 28 -13 32 3 3 1 6 -5 6
-7 0 -12 9 -12 20 0 11 -5 20 -11 20 -7 0 -9 8 -4 23 11 35 14 102 4 86 -6
-10 -9 -10 -9 -1 0 6 -7 12 -15 12 -14 0 -15 57 -13 485 3 406 1 484 -11 480
-9 -4 -11 0 -7 11 3 8 6 29 6 45 0 19 5 29 15 29 14 0 13 3 -1 25 -9 14 -20
23 -24 20 -5 -3 -6 5 -2 17 4 16 2 20 -10 15 -12 -4 -14 -1 -10 15 4 16 2 19
-8 13 -9 -5 -11 -4 -6 3 10 17 -22 72 -42 73 -10 0 -12 3 -5 6 10 3 10 9 0 26
-7 12 -16 25 -22 29 -5 4 -7 8 -3 8 4 0 -1 15 -11 33 -10 17 -24 31 -31 29 -6
-1 -8 3 -5 9 4 6 -2 24 -14 40 -11 15 -21 35 -21 44 0 9 -4 14 -8 11 -5 -3 -9
0 -9 7 0 7 -37 76 -83 154 -61 105 -86 140 -95 133 -6 -5 -15 -7 -18 -3 -4 3
-7 1 -7 -5 0 -13 26 -16 33 -4 2 4 2 1 0 -7 -2 -8 4 -22 13 -32 10 -11 14 -19
10 -19 -4 0 -15 9 -24 21 -16 19 -17 -14 -15 -497 2 -284 5 -519 8 -522 3 -3
5 -12 5 -19 0 -8 -10 -3 -25 13 -15 17 -23 34 -20 45 3 9 1 20 -4 24 -7 3 -8
0 -5 -9 11 -29 -5 -16 -22 17 -9 17 -20 34 -23 37 -3 3 -14 21 -24 41 -29 56
-123 200 -128 194 -3 -2 -6 5 -6 17 -1 12 -7 26 -14 32 -9 8 -10 7 -4 -3 5 -9
4 -12 -3 -7 -6 4 -9 13 -6 21 4 8 -1 17 -9 21 -9 3 -13 12 -11 19 3 7 0 16 -7
21 -8 5 -10 3 -4 -6 5 -9 4 -11 -4 -6 -6 4 -9 12 -5 17 3 6 -6 21 -21 35 -16
15 -24 31 -21 40 3 8 2 13 -3 10 -5 -3 -57 79 -117 182 -59 103 -132 227 -161
275 -29 48 -53 90 -53 92 0 3 163 5 363 5 l362 -1 410 -716z m2059 699 c-19
-16 -65 -91 -275 -454 l-74 -127 -242 -1 -243 0 0 118 c0 83 -4 124 -13 137
-13 17 -15 16 -25 -14 -6 -17 -9 -39 -6 -49 5 -14 4 -15 -5 -2 -11 17 -10 18
-39 -33 -12 -21 -19 -43 -16 -49 4 -6 2 -8 -4 -5 -6 4 -23 -17 -41 -48 -30
-54 -83 -100 -67 -59 8 22 324 573 339 592 7 9 93 12 371 12 343 0 360 -1 340
-18z m1096 8 c0 -5 -6 -10 -13 -10 -7 0 -51 -66 -98 -146 -46 -81 -95 -165
-108 -188 -13 -22 -29 -50 -35 -61 -7 -11 -34 -57 -60 -103 l-49 -83 -333 1
c-226 1 -339 -2 -353 -10 -12 -6 -21 -8 -21 -5 0 4 180 321 312 548 l39 67
359 0 c233 0 360 -4 360 -10z m-1945 -409 c1 -10 -4 -18 -11 -18 -9 0 -10 5
-4 17 5 10 7 20 5 24 -3 3 -2 4 2 1 4 -3 7 -14 8 -24z m1384 -544 c-24 -20
-48 -56 -89 -129 -8 -15 -55 -98 -105 -184 -49 -86 -97 -168 -105 -183 -36
-63 -91 -131 -102 -125 -7 5 -8 2 -1 -11 8 -14 3 -30 -20 -71 -30 -51 -56 -74
-43 -36 6 16 5 16 -8 -1 -10 -14 -15 -15 -19 -5 -3 7 -4 -9 -3 -35 2 -43 -1
-50 -31 -73 -31 -24 -32 -24 -42 -5 -9 17 -8 19 14 17 l25 -3 2 409 c3 400 3
408 -17 415 -17 6 -14 8 15 14 25 4 11 7 -47 8 -82 1 -113 -4 -113 -19 0 -5
-18 -40 -41 -79 -22 -39 -37 -76 -33 -82 4 -7 3 -9 -3 -6 -15 10 -266 -419
-261 -445 2 -7 -3 -12 -9 -10 -12 2 -17 -10 -14 -30 0 -5 -3 -8 -9 -8 -5 0 -6
-7 -3 -17 4 -10 2 -14 -4 -10 -6 4 -13 0 -16 -8 -4 -9 -1 -12 7 -9 14 6 15
-43 1 -66 -5 -9 -4 -15 3 -18 8 -2 12 -117 12 -410 2 -512 2 -511 18 -517 7
-3 10 -10 6 -16 -5 -8 -9 -7 -14 2 -5 7 -7 -2 -7 -22 1 -20 -3 -34 -10 -34 -6
0 -15 -3 -19 -7 -4 -5 -2 -8 4 -8 11 0 -16 -72 -33 -88 -5 -4 -5 0 0 8 5 8 6
13 2 10 -3 -3 -6 -8 -6 -13 0 -4 -8 -21 -16 -37 -8 -16 -16 -33 -16 -37 0 -5
-5 -13 -11 -20 -5 -7 -18 -27 -27 -45 -25 -47 -68 -124 -106 -188 -18 -30 -45
-77 -60 -105 -15 -27 -55 -99 -90 -160 -34 -60 -77 -137 -95 -169 -51 -93 -50
-92 -94 -17 -117 200 -306 531 -306 536 0 6 395 699 669 1175 85 146 223 387
309 535 85 149 180 312 209 363 l54 92 362 0 362 0 -26 -23z m-1341 -387 c3
-8 0 -10 -8 -5 -10 6 -12 4 -7 -8 4 -11 1 -17 -7 -17 -8 0 -13 10 -12 24 1 25
26 30 34 6z m-46 -102 c-7 -7 -12 -8 -12 -2 0 14 12 26 19 19 2 -3 -1 -11 -7
-17z m-12 -28 c0 -5 -5 -10 -11 -10 -5 0 -7 5 -4 10 3 6 8 10 11 10 2 0 4 -4
4 -10z m-22 -24 c-2 -1 -10 -7 -18 -13 -13 -10 -16 -8 -16 6 0 13 6 17 19 13
10 -2 16 -5 15 -6z m-4121 -563 c-1 -81 -3 -17 -3 142 0 160 2 226 3 148 2
-78 2 -208 0 -290z m5072 316 c-13 -26 -23 -18 -14 10 3 12 11 19 16 16 5 -4
5 -14 -2 -26z m-2148 -96 c-12 -20 -14 -14 -5 12 4 9 9 14 11 11 3 -2 0 -13
-6 -23z m24 -22 c-3 -12 -11 -19 -16 -16 -5 4 -5 14 2 26 13 26 23 18 14 -10z
m2035 -15 c0 -26 -6 -18 -14 19 -5 22 -4 26 4 15 5 -8 10 -24 10 -34z m24 19
c-4 -8 -8 -15 -10 -15 -2 0 -4 7 -4 15 0 8 4 15 10 15 5 0 7 -7 4 -15z m-7644
-415 l0 -200 -94 0 c-53 0 -98 4 -101 10 -3 6 -3 10 2 10 4 0 8 81 8 180 l0
180 -47 0 -48 0 0 -185 c0 -140 -3 -187 -12 -189 -7 -3 -43 -7 -80 -10 l-68
-7 0 206 0 205 220 0 220 0 0 -200z m586 178 c-3 -13 -6 -103 -6 -200 l0 -178
-97 0 c-67 0 -93 3 -83 10 13 8 12 10 -5 11 -13 1 -15 3 -5 5 13 4 15 31 13
177 l-2 172 -48 3 -48 3 2 -191 1 -190 -67 0 c-39 0 -72 -5 -79 -12 -9 -9 -12
35 -12 200 l0 212 221 0 221 0 -6 -22z m2051 -140 c-3 -8 -6 -5 -6 6 -1 11 2
17 5 13 3 -3 4 -12 1 -19z m0 -70 c-3 -7 -5 -2 -5 12 0 14 2 19 5 13 2 -7 2
-19 0 -25z m-852 -91 c10 -8 14 -17 8 -20 -5 -3 -17 3 -26 14 -19 22 -9 25 18
6z m852 -79 c-2 -18 -4 -6 -4 27 0 33 2 48 4 33 2 -15 2 -42 0 -60z m33 -645
c14 -23 64 -76 113 -118 81 -71 87 -78 86 -113 -1 -21 -3 -28 -6 -17 -7 28
-84 106 -97 98 -6 -3 -8 -3 -4 2 4 4 -16 25 -43 47 -32 25 -59 57 -72 86 -21
46 -22 56 -17 337 l4 290 6 -285 c5 -282 5 -286 30 -327z m-2678 272 l-3 -205
-90 0 c-52 0 -88 4 -85 9 4 5 0 12 -6 15 -8 4 -9 8 -3 11 6 3 9 70 7 180 l-3
175 -44 0 -45 0 -1 -172 c-1 -95 0 -183 1 -195 1 -22 -2 -23 -67 -23 -40 0
-74 -5 -81 -12 -9 -9 -12 36 -12 205 l0 217 218 0 217 0 -3 -205z m596 3 l-3
-203 -86 -3 c-69 -2 -89 0 -99 13 -8 10 -10 19 -4 23 5 4 8 80 6 180 l-3 172
-47 0 -47 0 1 -191 c1 -133 -2 -192 -10 -194 -6 -2 -41 -5 -78 -7 l-68 -4 0
208 0 208 221 0 220 0 -3 -202z m2002 -534 c0 -91 -4 -155 -10 -159 -7 -4 -10
51 -10 157 0 90 -3 174 -6 188 -5 23 -5 23 10 -4 13 -22 16 -60 16 -182z
m3082 -868 l3 -575 155 147 c86 81 189 178 229 215 40 38 71 71 68 73 -12 12
-148 15 -162 4 -13 -10 -15 -8 -15 14 l0 26 200 0 c110 0 200 -4 200 -8 0 -10
-60 -32 -89 -32 -47 0 -96 -35 -231 -164 -36 -34 -82 -74 -102 -90 -21 -15
-35 -33 -31 -39 4 -6 0 -8 -9 -4 -18 6 -81 -56 -70 -69 4 -4 2 -4 -4 -1 -6 3
-37 -18 -69 -48 -32 -30 -64 -55 -72 -55 -8 0 -11 -4 -8 -10 3 -5 -2 -10 -12
-11 -10 0 -13 -3 -7 -5 7 -3 10 -13 8 -22 -8 -30 -9 -371 -2 -364 4 4 9 79 11
167 l3 160 2 -166 2 -167 76 -4 c52 -2 78 -8 84 -18 16 -25 11 -29 -19 -19
-15 6 -57 9 -92 7 -48 -2 -67 1 -77 12 -11 13 -11 13 -7 -1 5 -14 -18 -17
-195 -25 l-200 -9 0 26 c0 25 3 27 55 31 64 5 102 33 110 82 3 17 6 356 8 754
l2 723 -88 -3 c-85 -3 -87 -2 -87 20 l0 22 215 0 215 0 2 -574z m-5465 364
c56 -25 83 -70 83 -135 0 -32 -3 -45 -9 -36 -7 10 -10 8 -16 -10 -9 -31 -54
-79 -74 -79 -11 0 -10 4 5 15 11 9 13 13 4 10 -13 -4 -14 7 -12 75 2 54 -1 86
-9 96 -10 13 -8 13 14 5 25 -10 26 -9 15 14 -6 14 -16 25 -22 25 -6 0 -27 3
-46 6 -27 4 -42 1 -63 -16 -15 -12 -25 -26 -21 -31 11 -18 10 -148 -2 -163
-10 -14 -13 -15 -24 -1 -7 8 -18 15 -26 15 -16 0 -28 59 -20 103 8 44 60 105
99 116 49 14 78 12 124 -9z m11993 -2 c53 -28 78 -60 87 -112 5 -30 2 -41 -10
-48 -10 -5 -17 -15 -17 -22 0 -15 -45 -63 -75 -78 l-20 -11 20 23 20 23 -25
-13 c-21 -11 -23 -11 -13 1 17 21 22 209 5 209 -7 0 -10 5 -7 11 5 7 -7 9 -35
7 -35 -2 -47 -9 -69 -37 -14 -19 -20 -32 -13 -27 8 5 12 -2 12 -26 1 -18 2
-58 3 -89 l2 -56 -32 18 c-17 10 -33 15 -36 12 -3 -3 -11 13 -17 36 -8 29 -8
52 0 81 28 103 124 146 220 98z m-13188 -80 c-3 -12 -7 -17 -10 -10 -2 8 -25
12 -65 11 -46 -1 -56 -3 -37 -9 20 -6 14 -8 -27 -9 -56 -1 -62 -8 -39 -44 16
-25 103 -239 272 -676 63 -162 117 -298 121 -304 7 -12 17 13 209 553 85 239
160 440 166 447 16 20 -10 25 -106 21 -84 -3 -86 -2 -86 20 l0 22 195 0 195 0
0 -22 c0 -22 -3 -23 -58 -20 -40 3 -61 -1 -68 -10 -6 -7 -23 -49 -38 -93 -16
-44 -56 -156 -91 -250 -93 -254 -182 -496 -227 -622 -24 -66 -45 -110 -51
-106 -5 3 -7 1 -4 -4 9 -15 -37 -146 -47 -136 -5 4 -6 0 -3 -9 3 -10 2 -20 -2
-22 -9 -6 -7 70 2 94 13 33 26 94 22 99 -3 2 -5 0 -5 -6 0 -6 -9 -13 -20 -16
-11 -3 -20 -1 -20 4 0 5 8 9 18 9 16 1 16 1 0 11 -10 5 -21 28 -24 50 -5 29
-9 37 -16 27 -7 -9 -8 -6 -5 10 3 14 0 25 -8 28 -8 3 -11 12 -8 20 3 8 0 21
-7 29 -6 8 -13 24 -15 37 -5 40 -196 518 -208 518 -4 0 -5 5 -1 12 5 7 3 8 -6
3 -10 -6 -12 -1 -8 19 4 19 2 24 -5 17 -7 -7 -7 -22 0 -48 7 -25 8 -109 4
-243 -4 -113 -3 -209 1 -215 4 -5 8 -23 8 -40 -1 -26 -5 -21 -35 40 -19 39
-35 75 -35 82 0 6 -9 18 -20 26 -22 15 -53 94 -43 110 3 5 2 8 -3 4 -10 -5
-215 503 -218 538 0 11 -5 23 -11 27 -16 12 -100 9 -113 -4 -9 -9 -12 -5 -12
20 l0 32 299 0 299 0 -6 -22z m8548 0 c0 -22 -2 -23 -95 -20 -83 3 -96 1 -102
-14 -4 -10 -2 -19 5 -22 9 -3 12 -157 12 -628 l0 -624 68 0 c55 0 72 -4 91
-21 12 -12 21 -22 19 -23 -2 0 -65 0 -140 2 l-138 4 0 638 c0 600 1 639 18
643 9 3 4 5 -13 6 -21 1 -26 4 -16 10 11 7 11 9 0 14 -8 3 0 6 16 7 18 2 23 4
13 7 -10 2 -18 9 -18 14 0 15 -140 11 -140 -3 0 -7 0 -311 0 -675 l1 -661
-103 -4 c-57 -2 -110 -6 -118 -9 -11 -3 -15 3 -15 21 0 25 1 25 93 28 l92 3 0
629 c0 473 3 629 12 632 6 2 8 10 4 16 -10 16 -168 16 -184 0 -9 -9 -12 -5
-12 20 l0 32 325 0 325 0 0 -22z m1830 -253 l0 -135 160 0 c157 0 160 0 160
-21 0 -22 -2 -22 -132 -15 -73 4 -152 9 -175 12 -39 6 -41 7 -32 31 14 37 12
246 -2 237 -7 -4 -28 -8 -48 -10 -37 -4 -91 -22 -91 -32 0 -3 8 -14 17 -24 12
-14 13 -17 2 -13 -12 4 -13 -61 -9 -486 3 -270 2 -493 -2 -495 -10 -6 3 -67
16 -76 6 -4 8 -10 4 -13 -3 -4 -18 10 -33 29 -15 19 -32 34 -38 33 -6 -1 -20
23 -31 53 -18 50 -21 86 -24 383 -3 243 0 332 8 342 18 22 -7 28 -95 23 -72
-3 -75 -3 -75 19 0 13 6 24 15 24 8 1 20 3 25 4 6 1 35 3 65 4 l55 1 0 108 0
109 108 20 c169 33 152 46 152 -112z m-5930 -5 c0 -6 -30 -10 -69 -10 -38 0
-76 -3 -85 -6 -20 -8 -21 -30 -2 -41 12 -7 139 -293 256 -575 17 -43 35 -78
38 -78 4 0 59 132 122 293 63 160 125 312 137 337 12 24 20 46 17 50 -3 3 -46
5 -95 5 -78 0 -89 2 -89 18 0 16 15 17 180 17 143 0 180 -3 180 -13 0 -8 -6
-14 -12 -15 -81 -11 -90 -15 -118 -54 -16 -22 -32 -50 -36 -62 -14 -49 -197
-502 -207 -515 -7 -7 -12 -19 -12 -25 -3 -37 -20 -67 -41 -72 -13 -3 -21 -10
-18 -16 3 -5 11 -5 19 2 11 9 12 7 8 -9 -3 -12 -10 -18 -15 -15 -6 4 -7 -2 -3
-16 5 -17 4 -21 -5 -15 -8 5 -11 4 -7 -3 10 -15 -2 -42 -16 -36 -8 3 -13 -10
-14 -36 -1 -42 -18 -74 -34 -64 -16 9 -10 24 8 17 11 -4 14 -3 9 6 -4 6 -2 18
4 26 7 9 9 22 5 32 -11 26 -22 123 -14 117 17 -10 19 17 3 41 -9 14 -13 25 -9
25 5 0 1 8 -7 18 -8 9 -15 24 -15 33 1 28 -56 158 -66 152 -6 -3 -7 -1 -3 5 6
11 -46 148 -87 227 -12 22 -22 46 -23 52 -1 7 -10 20 -19 29 -9 9 -14 23 -11
30 3 7 2 16 -3 18 -4 3 -8 0 -8 -7 0 -7 -4 -21 -9 -31 -5 -14 -4 -17 4 -12 7
4 12 1 12 -8 0 -9 4 -16 10 -16 5 0 6 -9 2 -22 -9 -27 -8 -336 2 -345 3 -3 6
-13 6 -22 -1 -9 -8 -3 -17 14 -9 17 -15 32 -14 34 2 2 -1 7 -6 10 -4 3 -21 32
-36 64 -16 33 -30 57 -33 55 -2 -3 8 -28 22 -57 14 -29 23 -55 21 -57 -8 -8
-68 136 -61 147 4 7 3 9 -3 6 -11 -7 -156 302 -151 324 2 11 -10 14 -55 14
-53 0 -57 2 -57 23 l0 22 260 0 c167 0 260 -4 260 -10z m-2069 -105 c65 -23
115 -61 149 -115 52 -81 60 -146 60 -507 l0 -323 53 0 c31 0 61 -6 75 -16 29
-20 28 -38 0 -31 -34 8 -483 11 -496 3 -14 -8 -25 10 -18 29 3 9 19 15 41 15
39 0 71 25 80 63 9 35 1 660 -9 682 l-9 20 17 -20 c16 -19 16 -17 1 20 -18 47
-67 93 -110 102 l-30 7 25 7 25 6 -23 10 c-13 5 -23 12 -23 16 2 16 -56 -1
-99 -29 -43 -27 -111 -98 -135 -141 -10 -18 -22 -30 -25 -28 -4 2 -7 -1 -8 -8
-8 -105 -10 -157 -3 -132 4 17 7 -100 5 -260 -1 -159 0 -295 3 -302 3 -8 22
-13 47 -13 23 0 52 -7 64 -16 30 -20 29 -36 -2 -24 -13 4 -72 7 -132 4 -380
-14 -385 -14 -382 9 2 18 12 23 50 29 57 8 64 12 83 48 12 23 15 97 15 432 l1
403 -76 0 c-71 0 -75 1 -75 23 l0 22 198 0 197 0 3 -83 c4 -81 10 -107 20 -77
2 8 34 45 71 81 83 82 142 108 252 108 45 1 95 -5 120 -14z m1105 -9 c74 -26
142 -82 178 -146 l31 -55 6 -340 c5 -356 9 -387 50 -400 33 -11 66 32 81 106
11 56 14 60 38 57 23 -3 25 -7 23 -50 -1 -29 -8 -53 -20 -66 -10 -11 -26 -32
-36 -46 -10 -14 -32 -34 -50 -43 -42 -22 -151 -22 -192 -1 -30 16 -82 66 -77
74 3 6 -27 64 -33 64 -3 0 -3 -12 0 -27 4 -23 4 -25 -4 -8 -14 30 -13 45 4 45
19 0 19 9 -1 31 -13 14 -21 16 -35 8 -11 -5 -19 -15 -19 -22 0 -22 -61 -87
-99 -106 -20 -11 -58 -22 -85 -26 -26 -4 -43 -10 -38 -14 7 -4 8 -12 2 -21
-12 -19 -139 -19 -195 -1 -71 24 -136 71 -156 115 -23 50 -25 171 -5 220 51
122 205 193 469 217 l130 12 -6 121 c-4 67 -9 135 -12 151 l-6 30 15 -30 c15
-32 16 -32 20 2 1 12 -1 20 -6 17 -4 -3 -8 0 -8 5 0 6 5 11 11 11 6 0 1 9 -12
21 l-24 20 34 -5 34 -6 -26 20 c-17 14 -24 26 -20 37 5 13 2 15 -12 9 -10 -4
-21 -2 -25 4 -8 14 -147 25 -185 16 -15 -4 -25 -10 -22 -13 3 -3 -7 -16 -23
-30 -19 -15 -36 -45 -47 -81 -34 -109 -63 -142 -126 -142 -57 0 -103 25 -110
58 -19 94 81 192 226 222 72 15 305 6 363 -14z m2229 10 c112 -30 181 -84 224
-176 26 -55 26 -55 31 -390 4 -300 7 -339 23 -363 21 -32 40 -34 66 -8 18 18
27 42 45 124 6 27 28 35 54 19 14 -9 7 -88 -9 -98 -5 -3 -6 -11 -3 -17 4 -7 4
-9 -1 -5 -5 5 -16 -6 -27 -22 -53 -89 -207 -104 -293 -29 -19 17 -40 46 -47
65 -13 37 -33 47 -23 12 5 -18 4 -20 -4 -8 -14 19 -14 53 -1 45 11 -7 13 6 4
29 -9 24 -43 19 -53 -7 -24 -63 -99 -119 -176 -132 -64 -11 -69 -13 -56 -29
10 -12 3 -15 -37 -21 -71 -10 -158 10 -222 49 -69 43 -87 67 -100 136 -33 176
68 299 290 353 57 14 238 37 292 37 19 0 20 5 17 144 -3 112 -2 140 8 127 6
-9 15 -12 20 -7 4 5 2 11 -4 13 -7 3 -13 12 -13 21 0 10 -9 32 -20 50 -11 17
-16 32 -11 32 5 0 12 7 15 16 4 9 2 13 -5 8 -6 -4 -15 -1 -19 6 -5 8 -42 14
-100 18 -69 4 -91 2 -86 -7 5 -7 0 -11 -13 -11 -25 0 -53 -36 -75 -97 -48
-133 -65 -153 -127 -153 -45 0 -104 24 -113 45 -20 53 14 130 76 173 38 26
103 52 163 65 47 11 263 6 310 -7z m3815 -5 c69 -26 114 -63 146 -117 48 -82
54 -131 54 -490 l0 -332 66 -4 c42 -3 69 -9 75 -19 13 -21 11 -32 -6 -26 -21
8 -492 10 -504 2 -7 -4 -11 4 -11 19 0 23 4 26 35 26 58 0 82 32 90 123 11
114 1 576 -14 612 l-11 30 20 -25 21 -25 -15 39 c-19 47 -66 104 -86 105 -8 1
-22 6 -30 12 -12 9 -10 10 8 6 20 -5 21 -3 11 10 -10 12 -10 16 2 24 10 8 8 8
-10 4 -14 -4 -26 -2 -30 4 -6 8 -16 8 -39 -2 -18 -7 -29 -17 -25 -22 5 -4 3
-5 -4 -1 -26 14 -118 -63 -165 -138 -18 -28 -33 -53 -33 -56 -1 -3 -4 -12 -8
-20 -12 -32 -18 -122 -7 -115 7 4 10 -83 10 -278 l0 -285 56 -4 c33 -3 60 -11
65 -19 13 -20 11 -31 -3 -22 -16 10 -416 4 -475 -6 -37 -7 -42 -6 -47 12 -7
29 1 37 35 37 39 0 85 24 101 53 10 17 12 110 11 411 -2 272 1 393 8 402 16
20 -8 26 -86 22 -62 -3 -65 -2 -65 20 l0 22 195 0 195 0 0 -44 c0 -24 3 -64 6
-90 l7 -47 19 33 c43 71 128 141 202 164 63 20 177 17 236 -5z m1944 4 c91
-24 164 -64 215 -121 52 -57 71 -106 71 -182 0 -44 -5 -56 -32 -85 -57 -60
-144 -88 -268 -86 -36 1 -69 0 -75 -1 -5 -1 -12 -2 -15 -1 -8 3 -59 9 -147 15
-54 4 -84 3 -88 -5 -4 -5 -13 -8 -20 -5 -17 6 -53 -33 -38 -42 5 -4 14 -38 17
-77 26 -258 134 -391 301 -371 113 13 212 74 266 164 12 20 23 38 24 40 1 1
15 -2 31 -8 25 -10 27 -13 14 -23 -8 -7 -28 -32 -45 -56 -67 -99 -167 -151
-299 -156 -50 -2 -74 0 -65 6 11 7 11 9 -4 9 -15 0 -41 9 -94 32 -13 6 -70 63
-82 83 l-13 20 7 -20 c4 -11 8 -27 8 -35 0 -8 5 -18 11 -22 8 -5 7 -8 -1 -8
-7 0 -13 -5 -13 -11 0 -6 7 -8 16 -5 14 5 15 4 4 -9 -7 -8 -18 -15 -24 -15
-27 0 -136 61 -174 97 -23 22 -44 38 -46 36 -10 -10 -58 76 -77 137 -29 91
-36 254 -15 343 42 177 156 305 320 357 77 24 246 27 330 5z m2745 0 c167 -44
292 -159 344 -318 24 -75 31 -282 9 -296 -7 -4 -12 -12 -11 -17 2 -5 -14 -45
-36 -89 -46 -98 -141 -196 -229 -238 -32 -16 -60 -26 -63 -23 -4 3 -13 1 -20
-6 -19 -15 -204 -13 -234 2 -11 6 -27 9 -35 6 -7 -3 -13 0 -11 6 1 6 -4 13
-12 16 -8 2 -11 0 -7 -6 23 -37 -80 -6 -155 46 -65 45 -144 124 -163 161 -51
98 -69 278 -41 400 40 169 179 308 355 355 71 19 240 20 309 1z m-1545 -6 c22
-6 52 -24 68 -39 23 -24 28 -37 28 -79 0 -41 -5 -55 -27 -79 -61 -65 -118 -70
-169 -16 -19 19 -34 41 -34 47 -1 24 -40 58 -73 64 -47 7 -88 -17 -126 -73
-17 -26 -31 -51 -31 -56 0 -4 -12 -8 -26 -8 -21 0 -25 4 -23 28 1 15 1 62 1
105 -2 73 -3 77 -24 77 -24 0 -63 -20 -40 -20 6 0 12 -5 12 -11 0 -5 -3 -8 -7
-6 -5 3 -7 -201 -5 -453 l2 -458 -142 -4 c-79 -3 -150 -7 -158 -9 -10 -3 -16
5 -18 24 -3 25 -1 27 33 27 50 0 91 24 104 61 7 20 11 169 11 427 l1 397 -73
1 c-66 1 -73 3 -76 23 -3 21 -2 21 191 21 l195 0 7 -102 7 -101 23 37 c85 141
236 212 369 175z m-11409 -471 l0 -463 61 -6 c68 -6 84 -13 84 -36 0 -10 -6
-13 -16 -9 -9 3 -60 6 -115 6 l-99 0 2 464 c2 352 0 466 -9 475 -7 6 -36 11
-66 11 l-53 0 -2 -36 c-2 -20 -3 -39 -4 -43 -1 -3 2 -14 7 -24 4 -10 2 -23 -5
-32 -10 -12 -10 -15 0 -15 16 0 12 -781 -4 -792 -6 -4 -39 -8 -73 -8 -34 0
-73 -4 -87 -10 -24 -9 -26 -8 -26 20 0 28 2 30 39 30 49 0 87 30 101 78 6 22
11 193 13 425 l2 388 -78 -3 c-74 -3 -77 -2 -77 20 l0 22 203 0 202 0 0 -462z
m11990 0 l0 -463 61 -6 c65 -6 84 -13 84 -32 0 -9 -31 -11 -115 -9 l-116 3 1
464 c1 256 -1 469 -5 475 -3 5 -30 10 -60 10 -56 0 -65 -8 -65 -53 0 -18 2
-19 11 -7 8 11 8 9 3 -10 -7 -22 -7 -652 0 -737 1 -18 -3 -35 -8 -38 -8 -3 -7
-7 0 -10 8 -4 9 -18 3 -43 -5 -25 -4 -39 4 -44 7 -4 -25 -8 -70 -8 -45 0 -93
-4 -107 -10 -23 -8 -26 -7 -26 10 0 11 0 23 0 28 -1 4 20 10 46 14 31 4 56 16
73 33 l26 25 3 398 c2 238 7 401 12 406 22 22 6 27 -75 24 -82 -3 -85 -2 -85
20 l0 22 203 0 202 0 0 -462z m-3898 426 c-3 -3 -12 -4 -19 -1 -8 3 -5 6 6 6
11 1 17 -2 13 -5z m1047 -861 c33 -54 88 -67 143 -33 38 23 57 50 89 127 21
53 26 58 51 55 35 -4 41 -11 23 -22 -8 -6 -10 -10 -5 -10 6 0 6 -3 -1 -8 -5
-4 -18 -29 -28 -55 -23 -60 -58 -102 -107 -127 -46 -24 -135 -35 -169 -21 -17
6 -19 10 -8 10 9 1 20 6 24 12 4 7 1 10 -7 7 -8 -3 -19 2 -26 11 -18 24 -16
38 3 15 8 -10 12 -12 8 -4 -4 8 -13 22 -19 30 -7 9 -12 38 -10 70 1 30 3 213
6 405 l3 350 6 -390 c5 -361 6 -392 24 -422z m3054 667 c-7 -10 -14 -17 -17
-15 -4 4 18 35 25 35 2 0 -1 -9 -8 -20z m-6534 -103 c10 -7 98 -144 195 -303
l176 -289 40 -5 c49 -7 65 -16 65 -37 0 -14 -15 -15 -127 -10 -71 4 -149 7
-174 7 -40 0 -47 3 -58 28 -7 15 -13 29 -14 32 0 3 -18 31 -38 63 -21 32 -44
72 -51 88 -7 16 -16 29 -20 29 -5 0 -8 11 -8 25 0 14 -5 25 -10 25 -7 0 -7 6
0 19 5 11 9 28 8 38 0 10 0 46 0 80 2 55 4 62 20 56 15 -5 14 -4 -2 9 -13 10
-17 23 -14 41 4 22 1 27 -14 27 -18 0 -18 1 1 21 11 12 17 28 14 37 -5 12 -8
10 -15 -8 -5 -13 -11 -20 -14 -17 -3 3 -1 14 5 25 6 11 7 22 4 26 -12 12 13 6
31 -7z m-7104 -32 c0 -5 -5 -3 -10 5 -5 8 -10 20 -10 25 0 6 5 3 10 -5 5 -8
10 -19 10 -25z m7045 6 c-3 -6 -11 -11 -16 -11 -5 0 -4 6 3 14 14 16 24 13 13
-3z m-7030 -31 c3 -5 1 -10 -4 -10 -6 0 -11 5 -11 10 0 6 2 10 4 10 3 0 8 -4
11 -10z m12540 -540 c89 0 135 -11 135 -32 0 -11 -23 -12 -112 -5 -62 5 -115
12 -118 15 -3 4 -3 126 0 272 l5 265 3 -257 2 -258 85 0z m-5478 320 c0 -22
-2 -39 -4 -36 -8 8 -10 76 -3 76 4 0 7 -18 7 -40z m-19 -35 c-3 -3 -9 2 -12
12 -6 14 -5 15 5 6 7 -7 10 -15 7 -18z m-6677 -116 c-9 -22 -10 -22 -10 -3 -1
11 2 24 6 27 12 12 14 0 4 -24z m4309 -144 c-7 -8 -8 -20 -4 -26 5 -8 3 -9 -6
-4 -10 6 -12 4 -7 -9 4 -9 3 -15 -2 -12 -10 6 -42 -54 -44 -84 -1 -10 -4 -18
-8 -17 -4 1 -29 -32 -57 -74 -31 -48 -68 -89 -102 -114 -49 -36 -58 -39 -136
-43 -76 -4 -89 -2 -140 23 -77 38 -94 57 -94 104 0 56 32 91 90 98 57 6 94
-20 125 -91 13 -28 32 -60 44 -70 19 -17 25 -18 62 -7 61 18 118 84 181 208
30 59 57 115 61 123 5 13 7 13 16 0 10 -14 16 -7 12 13 -1 5 3 6 9 2 8 -5 8
-11 0 -20z m8315 -45 c3 -5 1 -10 -4 -10 -6 0 -11 5 -11 10 0 6 2 10 4 10 3 0
8 -4 11 -10z m-970 -10 c-3 -5 -14 -10 -23 -9 -14 0 -13 2 3 9 27 11 27 11 20
0z m-5838 -636 c47 -27 91 -92 100 -148 6 -41 -4 -109 -16 -101 -5 2 -14 -8
-21 -24 -11 -28 -80 -102 -80 -87 0 5 -6 4 -12 -1 -19 -15 -50 -24 -43 -14 3
5 -9 9 -27 8 -18 -1 -46 2 -61 6 -19 5 -27 4 -22 -3 3 -5 1 -10 -5 -10 -16 0
-87 38 -95 50 -4 6 -10 8 -14 6 -14 -9 -43 55 -48 109 -8 75 16 133 74 184 74
66 184 76 270 25z m5832 3 c42 -21 74 -58 39 -44 -9 3 -20 1 -25 -4 -7 -7 -23
-3 -49 10 -21 12 -50 21 -64 21 -20 0 -22 2 -10 11 11 8 4 9 -27 6 -47 -6 -79
-35 -112 -102 -16 -33 -18 -49 -11 -92 11 -64 21 -84 61 -117 43 -36 120 -37
169 -1 l34 25 23 -22 c22 -21 32 -45 14 -34 -5 3 -29 -5 -54 -19 -29 -16 -57
-24 -80 -23 -19 2 -33 6 -31 9 5 9 -60 21 -78 14 -9 -4 -29 6 -46 20 -17 14
-35 25 -39 24 -4 -1 -17 13 -28 32 -31 52 -27 152 8 211 59 102 190 133 306
75z m2061 22 c69 -16 136 -73 156 -132 22 -65 15 -125 -20 -161 -14 -16 -26
-33 -26 -37 0 -13 -66 -59 -99 -69 -22 -6 -29 -6 -25 2 5 7 2 9 -7 6 -8 -3
-35 -2 -61 2 -26 3 -45 3 -42 -2 8 -12 -3 -10 -39 8 -94 49 -123 96 -115 189
10 117 94 196 218 204 8 0 35 -4 60 -10z m-11721 -192 c46 -105 86 -199 88
-207 3 -13 -4 -15 -35 -12 -31 3 -42 10 -51 29 -6 14 -9 33 -6 43 3 10 0 22
-7 27 -38 24 -186 45 -173 24 3 -5 -7 -11 -22 -13 -23 -2 -33 -13 -52 -55 -18
-38 -30 -52 -50 -56 -14 -3 -27 -4 -29 -2 -3 2 162 387 174 407 3 4 22 8 42 8
l37 0 84 -193z m417 51 l109 -143 3 143 3 142 34 0 35 0 0 -205 0 -205 -24 0
c-19 0 -37 17 -80 79 -31 43 -56 86 -56 95 0 9 -5 16 -12 16 -6 0 -8 3 -5 6 9
9 -42 68 -60 70 -9 2 -20 7 -26 13 -6 6 -20 11 -30 11 -15 0 -17 -4 -11 -17 5
-10 10 -75 12 -145 l3 -128 -25 0 c-13 0 -31 -3 -40 -6 -14 -5 -16 17 -16 205
l0 211 39 0 c38 0 40 -2 147 -142z m684 -63 c0 -173 -2 -205 -15 -205 -8 0
-14 9 -13 23 3 72 -3 359 -7 355 -3 -3 -7 -87 -8 -186 -1 -129 -6 -185 -14
-194 -10 -10 -13 30 -13 200 l0 212 35 0 35 0 0 -205z m356 64 l109 -141 3
141 3 141 39 0 40 0 0 -205 0 -205 -28 0 c-22 0 -36 12 -75 65 -26 36 -47 70
-47 75 0 6 -6 10 -12 10 -9 0 -8 4 2 10 13 9 7 14 -12 11 -5 0 -7 2 -6 7 4 11
-42 85 -49 78 -4 -3 -16 3 -27 13 -47 43 -49 37 -47 -120 l3 -147 -36 -4 -36
-4 0 208 0 208 34 0 c32 0 41 -9 142 -141z m674 110 c0 -16 -4 -28 -8 -25 -5
3 -38 6 -75 7 -37 1 -67 6 -67 11 0 4 -16 8 -36 8 -21 0 -33 -4 -29 -10 4 -6
-16 -10 -54 -10 -38 0 -61 -4 -64 -12 -3 -7 -6 4 -6 25 l-1 37 170 0 170 0 0
-31z m460 6 c0 -21 -5 -25 -31 -25 -18 0 -60 5 -96 12 -49 9 -66 9 -75 0 -7
-7 -21 -12 -31 -12 -15 0 -18 -5 -13 -22 3 -13 6 -42 6 -65 l0 -43 111 0 c108
0 110 0 107 -22 -3 -20 -8 -22 -53 -19 -27 1 -51 7 -53 12 -4 11 -72 12 -72 1
0 -4 -14 -13 -32 -20 -25 -9 -30 -14 -20 -24 7 -7 12 -34 12 -60 l0 -48 120 0
120 0 0 -25 c0 -24 -2 -25 -66 -25 -41 0 -63 4 -59 10 4 6 -10 10 -34 10 -21
0 -41 -4 -43 -9 -1 -4 -29 -10 -61 -13 l-58 -5 1 203 c1 111 4 205 7 208 4 3
75 6 160 6 l153 0 0 -25z m417 14 c40 -15 72 -48 82 -85 10 -35 3 -87 -10 -79
-4 3 -13 -4 -19 -15 -21 -39 -59 -55 -127 -52 -40 2 -63 -1 -63 -7 0 -6 -13
-11 -28 -11 l-29 0 5 -75 c5 -75 5 -75 -21 -75 -14 0 -32 -3 -41 -6 -14 -5
-16 16 -16 198 0 113 3 208 7 211 11 11 229 8 260 -4z m317 -171 c-2 -101 -4
-193 -4 -205 0 -13 -4 -23 -10 -23 -5 0 -8 75 -7 190 2 149 -1 190 -11 190
-10 0 -12 -41 -12 -185 1 -101 -1 -189 -5 -195 -20 -32 -25 7 -25 200 l0 210
39 0 39 0 -4 -182z m1033 163 c48 -22 73 -62 73 -117 0 -21 -3 -34 -7 -31 -3
4 -17 -8 -29 -27 -13 -18 -35 -37 -50 -40 -14 -4 -33 -14 -41 -21 -13 -13 -12
-15 6 -15 14 0 38 -23 75 -72 29 -40 53 -74 52 -74 0 -1 -16 1 -33 3 -26 4
-40 16 -69 60 -20 30 -33 57 -30 61 4 3 -4 12 -16 19 -13 7 -17 12 -10 13 6 0
12 5 12 10 0 6 -15 10 -34 10 -19 0 -38 -4 -41 -10 -3 -5 -19 -10 -35 -10 -33
0 -48 -16 -31 -33 6 -6 11 -35 11 -64 0 -49 -2 -53 -24 -53 -13 0 -31 -3 -40
-6 -14 -5 -16 17 -16 205 l0 211 118 0 c93 0 125 -4 159 -19z m783 -6 c0 -24
-2 -25 -76 -25 -47 0 -73 4 -69 10 4 6 -10 10 -34 10 -21 0 -41 -4 -43 -9 -1
-4 -29 -10 -60 -13 l-58 -5 0 29 0 28 170 0 170 0 0 -25z m220 -65 l0 -91 100
2 100 1 0 89 0 89 40 0 40 0 0 -207 0 -208 -40 0 -40 -1 0 77 c0 43 5 81 10
84 18 11 1 23 -40 30 -22 4 -40 11 -40 16 0 5 -18 9 -40 9 -29 0 -40 -4 -40
-15 0 -10 -10 -15 -28 -15 l-28 0 4 -92 4 -93 -38 1 -39 1 -3 194 c-1 106 0
199 2 206 3 7 21 13 41 13 l35 0 0 -90z m763 -113 c48 -112 87 -205 87 -208 0
-2 -18 -3 -39 -1 -34 3 -41 9 -50 34 -14 39 -14 41 2 32 7 -5 5 2 -4 16 -11
18 -27 26 -53 28 -20 2 -36 7 -36 13 0 5 -22 9 -50 9 -27 0 -50 -4 -50 -10 0
-5 -8 -10 -19 -10 -23 0 -38 -17 -54 -66 -10 -28 -21 -40 -42 -46 -16 -4 -31
-5 -33 -3 -4 4 63 164 144 343 32 71 33 72 71 72 l38 0 88 -203z m487 178 c0
-24 -2 -25 -69 -25 -39 0 -73 5 -76 10 -3 6 -22 10 -41 10 -19 0 -34 -4 -34
-10 0 -5 -22 -10 -48 -10 -26 0 -53 -5 -60 -12 -9 -9 -12 -4 -12 25 l0 37 170
0 170 0 0 -25z m666 5 c44 -22 74 -67 74 -112 0 -22 -58 -86 -106 -115 -17
-11 -18 -13 -2 -23 13 -8 108 -134 108 -143 0 -2 -15 -1 -34 1 -27 3 -38 11
-50 37 -9 18 -22 38 -30 44 -8 7 -12 21 -8 33 3 14 1 19 -6 14 -6 -3 -13 -2
-17 4 -3 5 -2 10 4 10 6 0 8 7 5 15 -7 17 -94 22 -94 6 0 -5 -12 -11 -27 -13
l-28 -3 3 -72 c4 -68 2 -73 -16 -73 -11 0 -27 -3 -36 -6 -14 -5 -16 17 -16
205 l0 211 117 0 c97 0 124 -3 159 -20z m544 -8 c0 -31 10 -31 -140 -7 -66 10
-148 -27 -110 -50 6 -3 10 -26 10 -51 l0 -44 105 0 c104 0 105 0 105 -24 0
-22 -3 -23 -47 -19 -27 3 -52 9 -57 14 -14 12 -66 11 -66 -1 0 -5 -6 -10 -13
-10 -7 0 -22 -6 -33 -14 -15 -12 -17 -17 -6 -27 6 -7 12 -32 12 -56 l0 -43
120 0 120 0 0 -25 c0 -24 -2 -25 -65 -25 -37 0 -65 4 -65 10 0 12 -67 13 -72
1 -1 -4 -29 -10 -60 -13 l-58 -5 0 209 0 208 160 0 160 0 0 -28z m470 1 c0
-28 -1 -28 -57 -25 -32 2 -62 8 -67 13 -13 12 -76 12 -76 -1 0 -5 -11 -10 -24
-10 -29 0 -43 -17 -27 -33 6 -6 11 -30 11 -54 l0 -42 103 -3 c101 -3 102 -3
105 -28 3 -24 1 -25 -48 -22 -27 2 -50 8 -50 13 0 5 -16 9 -35 9 -19 0 -35 -4
-35 -9 0 -5 -14 -11 -31 -15 -25 -5 -30 -9 -24 -23 5 -10 10 -48 12 -85 3 -66
2 -68 -21 -68 -13 0 -31 -3 -40 -6 -14 -5 -16 17 -16 205 l0 211 160 0 160 0
0 -27z m220 -153 l0 -180 110 0 110 0 0 -25 c0 -24 -2 -25 -66 -25 -41 0 -63
4 -59 10 4 6 -8 10 -29 10 -19 0 -36 -4 -38 -9 -1 -4 -27 -10 -55 -13 l-53 -5
0 208 0 209 40 0 40 0 0 -180z m680 154 c0 -26 -1 -26 -57 -20 -32 3 -73 9
-91 12 -19 4 -43 2 -55 -4 -12 -6 -30 -13 -39 -16 -19 -6 -25 -26 -8 -26 6 0
10 -22 10 -50 l0 -50 105 0 c102 0 105 -1 105 -22 0 -21 -4 -23 -50 -20 -27 2
-50 8 -50 13 0 5 -16 9 -35 9 -19 0 -35 -4 -35 -8 0 -4 -14 -13 -32 -20 -25
-9 -30 -14 -20 -24 7 -7 12 -34 12 -60 l0 -48 120 0 120 0 0 -25 c0 -24 -3
-25 -59 -25 -33 0 -63 5 -66 10 -8 12 -72 13 -77 1 -1 -4 -29 -10 -60 -13
l-58 -5 0 209 0 208 160 0 160 0 0 -26z m980 -1 l0 -28 -70 3 c-38 2 -70 8
-70 13 0 12 -73 12 -85 0 -6 -5 -36 -11 -67 -13 l-58 -5 0 29 0 28 175 0 175
0 0 -27z m390 0 l34 -22 -26 -10 c-27 -10 -79 7 -93 30 -13 20 -66 9 -95 -21
-29 -30 -40 -60 -21 -60 5 0 11 -9 14 -20 6 -22 25 -31 111 -55 111 -31 149
-107 88 -175 -33 -35 -88 -55 -109 -38 -8 6 -31 8 -55 5 -26 -3 -55 0 -76 8
-18 8 -36 14 -40 12 -12 -4 -10 17 4 37 13 19 14 19 61 -3 84 -39 173 -24 173
30 0 9 5 19 12 21 6 2 -6 17 -28 34 -21 16 -41 32 -44 36 -15 19 -97 37 -85
18 9 -14 1 -13 -42 8 -48 22 -53 28 -53 75 0 49 13 73 53 98 45 28 167 24 217
-8z m544 -65 c51 -79 61 -89 70 -75 6 10 32 51 58 92 l48 75 45 0 c28 0 44 -4
40 -10 -3 -5 -13 -10 -20 -10 -8 0 -27 -19 -42 -42 -15 -24 -30 -45 -33 -48
-4 -3 -16 -22 -29 -43 -12 -20 -27 -35 -32 -32 -5 4 -6 -1 -3 -9 5 -13 -1 -16
-30 -16 -28 0 -38 5 -50 28 -8 15 -15 21 -16 13 0 -14 -10 -4 -67 64 -14 17
-22 23 -17 15 11 -22 1 -11 -40 43 l-36 47 48 0 47 0 59 -92z m1006 -48 c0
-187 16 -220 109 -220 28 0 48 7 68 24 l28 24 3 156 3 156 40 0 39 0 0 -140
c0 -77 -4 -140 -9 -140 -5 0 -7 -10 -3 -22 3 -14 1 -19 -6 -14 -6 3 -13 -3
-17 -13 -3 -11 -20 -32 -37 -46 -24 -20 -39 -25 -60 -21 -21 4 -27 2 -22 -7 6
-9 4 -9 -7 -1 -8 6 -32 14 -54 17 -26 4 -35 3 -25 -3 8 -5 12 -11 9 -14 -3 -3
-30 6 -60 22 -71 35 -78 57 -78 240 l-1 142 40 0 40 0 0 -140z m-10169 -27 c1
-49 3 -120 5 -160 2 -53 0 -74 -11 -83 -13 -11 -15 10 -15 159 0 107 4 171 10
171 6 0 11 -37 11 -87z m3012 65 c3 -13 6 -87 7 -164 0 -118 -2 -143 -15 -148
-13 -5 -15 17 -15 164 0 154 9 208 23 148z m1475 -145 c2 -136 0 -162 -13
-167 -13 -5 -15 16 -15 165 0 132 3 170 13 167 9 -4 13 -48 15 -165z m3552 3
c0 -99 -4 -167 -10 -171 -7 -4 -10 53 -10 164 0 107 4 171 10 171 6 0 10 -61
10 -164z m-7983 -88 c-1 -46 -3 -9 -3 82 0 91 2 128 3 83 2 -46 2 -120 0 -165z
m3010 0 c-1 -46 -3 -9 -3 82 0 91 2 128 3 83 2 -46 2 -120 0 -165z m1470 0
c-1 -46 -3 -9 -3 82 0 91 2 128 3 83 2 -46 2 -120 0 -165z m-3491 64 c21 -16
116 -144 111 -148 -1 -1 -17 1 -35 3 -27 4 -40 16 -68 60 -19 30 -32 58 -29
64 4 5 2 9 -3 9 -5 0 -9 7 -9 15 0 19 7 19 33 -3z m8164 -79 c0 -49 -3 -63
-15 -63 -12 0 -15 14 -15 68 0 38 3 72 7 75 13 14 23 -19 23 -80z m47 -30 c-2
-21 -4 -4 -4 37 0 41 2 58 4 38 2 -21 2 -55 0 -75z m-6889 -190 c-10 -2 -26
-2 -35 0 -10 3 -2 5 17 5 19 0 27 -2 18 -5z"/>
<path d="M10124 13768 c-49 -44 -120 -111 -159 -147 -38 -37 -113 -107 -165
-156 -52 -49 -126 -119 -165 -155 -38 -36 -243 -228 -455 -425 -211 -198 -499
-468 -640 -600 -140 -132 -395 -370 -565 -530 -170 -159 -359 -338 -419 -396
-106 -103 -109 -108 -117 -160 -4 -30 -11 -924 -15 -1986 l-7 -1933 267 0 267
0 -1 1821 -2 1820 26 52 c27 56 -5 24 1121 1112 715 690 1179 1135 1404 1349
l105 99 -24 19 c-23 18 -131 113 -176 153 -126 114 -164 145 -178 145 -8 0
-54 -37 -102 -82z"/>
<path d="M12282 12084 c10 -10 20 -16 22 -13 3 3 -5 11 -17 18 -21 13 -21 12
-5 -5z"/>
<path d="M16418 7943 c56 -2 148 -2 205 0 56 1 10 3 -103 3 -113 0 -159 -2
-102 -3z"/>
<path d="M16738 7233 c12 -2 32 -2 45 0 12 2 2 4 -23 4 -25 0 -35 -2 -22 -4z"/>
<path d="M16036 12915 c-3 -8 -1 -15 4 -15 6 0 10 7 10 15 0 8 -2 15 -4 15 -2
0 -6 -7 -10 -15z"/>
<path d="M16068 12893 c7 -3 16 -2 19 1 4 3 -2 6 -13 5 -11 0 -14 -3 -6 -6z"/>
<path d="M16090 12860 c6 -11 15 -20 20 -20 6 0 2 9 -7 20 -10 11 -19 20 -21
20 -1 0 2 -9 8 -20z"/>
<path d="M16120 12821 c0 -6 4 -13 10 -16 6 -3 7 1 4 9 -7 18 -14 21 -14 7z"/>
<path d="M17343 13505 c0 -8 4 -12 9 -9 5 3 6 10 3 15 -9 13 -12 11 -12 -6z"/>
<path d="M17342 13467 c-8 -9 -8 -17 0 -27 8 -13 9 -12 5 1 -3 9 0 22 6 28 6
6 8 11 5 11 -3 0 -10 -6 -16 -13z"/>
<path d="M17296 13429 c-9 -11 -15 -26 -13 -32 2 -6 12 1 22 16 22 33 16 44
-9 16z"/>
<path d="M17295 13379 c-11 -17 1 -21 15 -4 8 9 8 15 2 15 -6 0 -14 -5 -17
-11z"/>
<path d="M18173 12733 c9 -2 23 -2 30 0 6 3 -1 5 -18 5 -16 0 -22 -2 -12 -5z"/>
<path d="M18251 12174 c0 -11 3 -14 6 -6 3 7 2 16 -1 19 -3 4 -6 -2 -5 -13z"/>
<path d="M17555 11960 c-3 -5 -1 -10 4 -10 6 0 11 5 11 10 0 6 -2 10 -4 10 -3
0 -8 -4 -11 -10z"/>
<path d="M16105 10010 c-3 -6 1 -7 9 -4 14 6 16 -49 16 -525 0 -418 -3 -531
-12 -531 -10 0 -9 -3 1 -9 7 -5 10 -14 7 -20 -4 -6 -2 -11 3 -11 8 0 11 171
11 555 0 477 -2 555 -14 555 -8 0 -18 -4 -21 -10z"/>
<path d="M16111 8784 c0 -11 3 -14 6 -6 3 7 2 16 -1 19 -3 4 -6 -2 -5 -13z"/>
<path d="M22681 9774 c0 -11 3 -14 6 -6 3 7 2 16 -1 19 -3 4 -6 -2 -5 -13z"/>
<path d="M9372 9340 c0 -14 2 -19 5 -12 2 6 2 18 0 25 -3 6 -5 1 -5 -13z"/>
<path d="M9280 9080 c0 -5 5 -10 11 -10 5 0 7 5 4 10 -3 6 -8 10 -11 10 -2 0
-4 -4 -4 -10z"/>
<path d="M9696 8547 c3 -10 9 -15 12 -12 3 3 0 11 -7 18 -10 9 -11 8 -5 -6z"/>
<path d="M14050 8730 c-13 -8 -12 -10 3 -10 9 0 17 5 17 10 0 12 -1 12 -20 0z"/>
<path d="M11727 9369 c7 -7 15 -10 18 -7 3 3 -2 9 -12 12 -14 6 -15 5 -6 -5z"/>
<path d="M11401 8944 c0 -11 3 -14 6 -6 3 7 2 16 -1 19 -3 4 -6 -2 -5 -13z"/>
<path d="M12951 9174 c0 -11 3 -14 6 -6 3 7 2 16 -1 19 -3 4 -6 -2 -5 -13z"/>
<path d="M12775 8913 c-11 -2 -30 -6 -42 -9 -13 -2 -23 -11 -23 -19 0 -7 -9
-16 -19 -20 -37 -11 -74 -49 -97 -99 -13 -28 -19 -53 -15 -56 5 -3 10 -36 13
-75 9 -156 93 -221 208 -162 93 47 140 148 140 302 0 57 4 95 10 95 15 0 12
19 -4 36 -17 16 -30 19 -21 4 3 -5 2 -10 -4 -10 -5 0 -13 5 -16 10 -6 10 -90
12 -130 3z"/>
<path d="M15195 9330 c-3 -5 -1 -18 5 -27 10 -16 11 -16 7 4 -3 12 0 24 7 27
8 3 8 5 -1 5 -6 1 -15 -3 -18 -9z"/>
<path d="M15220 9302 c0 -6 9 -12 20 -15 11 -3 20 -3 20 -1 0 2 -9 8 -20 14
-11 6 -20 7 -20 2z"/>
<path d="M15055 8914 c-5 -1 -32 -5 -58 -9 -43 -6 -47 -8 -31 -19 17 -13 16
-14 -4 -20 -31 -10 -80 -53 -97 -86 -10 -19 -13 -51 -9 -114 7 -132 43 -199
112 -212 79 -15 164 43 208 143 20 45 24 70 24 159 0 84 3 106 15 110 19 8 19
21 1 40 -17 16 -30 19 -21 4 3 -5 1 -10 -4 -10 -6 0 -11 5 -11 10 0 9 -97 12
-125 4z"/>
<path d="M15233 8760 c0 -25 2 -35 4 -22 2 12 2 32 0 45 -2 12 -4 2 -4 -23z"/>
<path d="M15230 8660 c0 -5 5 -10 11 -10 5 0 7 5 4 10 -3 6 -8 10 -11 10 -2 0
-4 -4 -4 -10z"/>
<path d="M15225 8620 c3 -5 8 -10 11 -10 2 0 4 5 4 10 0 6 -5 10 -11 10 -5 0
-7 -4 -4 -10z"/>
<path d="M18541 8784 c0 -11 3 -14 6 -6 3 7 2 16 -1 19 -3 4 -6 -2 -5 -13z"/>
<path d="M20705 9369 c-68 -16 -73 -19 -53 -33 10 -7 15 -16 11 -19 -3 -4 -14
3 -24 15 -23 26 -25 16 -3 -17 9 -14 12 -25 7 -25 -12 0 -38 -59 -59 -137 -14
-50 -15 -76 -8 -130 l9 -68 141 -3 c167 -3 209 7 237 56 22 37 26 149 8 210
-9 30 -9 32 6 20 14 -12 14 -9 -1 20 -9 17 -14 32 -11 32 3 0 -10 14 -28 30
-19 17 -40 30 -46 30 -7 0 -10 4 -7 9 4 5 -3 7 -14 4 -11 -3 -20 0 -20 6 0 13
-87 13 -145 0z"/>
<path d="M23480 9373 c-14 -2 -42 -11 -62 -20 -30 -13 -36 -19 -27 -30 8 -9 8
-13 1 -13 -6 0 -25 -30 -43 -67 -26 -53 -33 -82 -34 -133 -1 -36 -3 -70 -6
-75 -9 -19 9 -360 21 -410 24 -95 68 -163 122 -191 35 -18 149 -18 191 0 112
48 165 220 153 501 -5 132 -11 179 -32 260 -4 16 -3 17 5 5 16 -22 13 2 -4 41
-21 49 -35 63 -95 103 -47 31 -62 36 -110 35 -30 -1 -66 -4 -80 -6z"/>
<path d="M15307 7747 c-44 -40 -101 -133 -69 -114 4 3 7 -20 8 -49 1 -110 100
-177 199 -136 51 21 80 75 80 148 0 35 3 57 7 51 4 -7 8 -7 8 -2 0 20 -40 74
-67 92 -15 10 -31 23 -35 29 -4 6 -27 12 -51 12 -36 1 -51 -5 -80 -31z"/>
<path d="M23256 7737 c-57 -55 -67 -80 -57 -148 13 -102 63 -149 155 -149 36
0 52 6 81 31 42 37 56 82 51 164 -4 53 -8 63 -38 88 -18 15 -43 30 -55 33 -13
4 -23 9 -23 13 0 4 -15 8 -34 9 -28 2 -42 -5 -80 -41z"/>
<path d="M11520 7735 c-11 -26 -18 -51 -14 -56 3 -5 0 -9 -5 -9 -6 0 -10 -3
-10 -7 1 -5 0 -10 -1 -13 -1 -3 -3 -12 -5 -20 -2 -8 -8 -29 -13 -47 -9 -28 -8
-32 11 -37 12 -3 48 -6 80 -6 45 0 57 3 57 16 0 8 5 12 10 9 13 -8 8 23 -8 51
-6 12 -20 52 -30 90 -24 87 -44 95 -72 29z"/>
<path d="M14560 7762 c0 -4 -14 -9 -32 -10 -18 -2 -33 -4 -33 -5 -1 -1 0 -37
3 -79 l4 -78 73 0 c84 0 112 16 117 65 2 17 7 33 11 36 12 9 -14 48 -36 55
-10 3 -14 10 -10 17 4 7 -2 5 -12 -3 -11 -9 -16 -10 -11 -2 5 9 -4 12 -33 12
-23 0 -41 -4 -41 -8z"/>
<path d="M15890 7760 c0 -5 -13 -10 -29 -10 -33 0 -49 -16 -32 -33 6 -6 11
-37 11 -69 l0 -58 73 0 c88 0 117 19 117 76 0 24 4 33 12 28 7 -5 8 -2 3 7
-18 31 -39 49 -57 49 -11 0 -16 5 -13 10 4 6 -12 10 -39 10 -25 0 -46 -4 -46
-10z"/>
<path d="M17649 7752 c-27 -67 -38 -102 -32 -102 3 0 1 -6 -5 -12 -5 -7 -13
-28 -17 -47 -9 -43 3 -51 84 -51 l64 0 -6 33 c-5 28 -5 29 5 10 6 -13 15 -23
20 -23 4 0 4 8 -1 18 -17 32 -41 97 -44 117 -2 11 -8 29 -14 40 -6 11 -9 25
-7 30 3 6 -5 11 -16 12 -14 1 -24 -7 -31 -25z"/>
<path d="M18810 7761 c0 -6 -15 -11 -32 -13 l-33 -3 4 -70 c1 -38 5 -73 8 -77
2 -5 35 -8 72 -8 86 0 121 22 121 76 0 23 4 33 11 28 17 -10 -6 28 -28 47 -11
8 -24 14 -30 12 -6 -2 -14 1 -18 6 -8 13 -75 15 -75 2z"/>
</g>
</svg>
