<?xml version="1.0" standalone="no"?>
<!DOCTYPE svg PUBLIC "-//W3C//DTD SVG 20010904//EN"
 "http://www.w3.org/TR/2001/REC-SVG-20010904/DTD/svg10.dtd">
<svg version="1.0" xmlns="http://www.w3.org/2000/svg"
 width="12500.000000pt" height="12500.000000pt" viewBox="0 0 12500.000000 12500.000000"
 preserveAspectRatio="xMidYMid meet">

<g transform="translate(0.000000,12500.000000) scale(0.100000,-0.100000)"
fill="#000000" stroke="none">
<path d="M62040 77845 c0 -8 460 -807 471 -819 5 -6 9 175 9 407 l0 417 -240
0 c-132 0 -240 -2 -240 -5z"/>
<path d="M74501 76376 l-851 -1474 0 -191 0 -191 1055 0 1055 0 0 1665 0 1665
-204 0 -204 0 -851 -1474z"/>
<path d="M79896 75721 c-377 -654 -686 -1191 -686 -1195 0 -3 311 -6 690 -6
l690 0 0 1195 c0 657 -2 1195 -4 1195 -2 0 -312 -535 -690 -1189z"/>
<path d="M66990 72590 l0 -3325 751 -1300 c413 -715 834 -1446 937 -1625 184
-323 491 -851 498 -859 2 -2 4 376 4 840 l0 844 -40 -65 -40 -65 0 2617 0
2616 -1046 1814 c-576 997 -1051 1817 -1055 1823 -5 5 -9 -1450 -9 -3315z"/>
<path d="M73650 70543 l0 -2298 44 75 c24 41 498 863 1055 1827 l1011 1752 0
471 0 470 -1055 0 -1055 0 0 -2297z"/>
<path d="M78066 72552 l-166 -289 2 -3324 3 -3325 1342 2326 1343 2325 0 1288
0 1287 -1179 0 -1178 0 -167 -288z"/>
<path d="M35980 65655 l0 -1145 55 0 55 0 0 1145 0 1145 -55 0 -55 0 0 -1145z"/>
<path d="M37080 65655 l0 -1145 230 0 230 0 0 1145 0 1145 -230 0 -230 0 0
-1145z"/>
<path d="M39120 65660 l0 -1140 55 0 55 0 0 1140 0 1140 -55 0 -55 0 0 -1140z"/>
<path d="M40220 65660 l0 -1140 230 0 230 0 0 1140 0 1140 -230 0 -230 0 0
-1140z"/>
<path d="M35970 62605 l0 -1155 55 0 55 0 0 1155 0 1155 -55 0 -55 0 0 -1155z"/>
<path d="M37070 62605 l0 -1155 235 0 235 0 0 1155 0 1155 -235 0 -235 0 0
-1155z"/>
<path d="M39120 62600 l0 -1140 55 0 55 0 0 1140 0 1140 -55 0 -55 0 0 -1140z"/>
<path d="M40230 62600 l0 -1140 230 0 230 0 0 1140 0 1140 -230 0 -230 0 0
-1140z"/>
<path d="M71890 61854 c-168 -291 -304 -534 -304 -540 1 -6 138 -248 305 -538
l304 -526 3 529 c1 291 1 771 0 1066 l-3 537 -305 -528z"/>
<path d="M66250 58130 l0 -160 145 0 145 0 0 160 0 160 -145 0 -145 0 0 -160z"/>
<path d="M39010 56410 l0 -843 108 6 c164 9 284 47 410 131 l72 48 0 642 0
643 -60 42 c-139 97 -285 152 -447 166 l-83 7 0 -842z"/>
<path d="M102970 56410 l0 -843 113 6 c171 9 317 58 433 146 l49 37 2 639 2
640 -46 34 c-130 96 -308 163 -465 176 l-88 7 0 -842z"/>
<path d="M29890 56675 l0 -165 170 0 170 0 0 165 0 165 -170 0 -170 0 0 -165z"/>
<path d="M75150 56675 l0 -165 85 0 85 0 0 165 0 165 -85 0 -85 0 0 -165z"/>
<path d="M76810 53125 l0 -3715 350 0 350 0 0 3715 0 3715 -350 0 -350 0 0
-3715z"/>
<path d="M88280 56087 c-52 -10 -119 -22 -148 -28 l-52 -10 2 -3332 3 -3332
92 -27 c50 -14 147 -36 215 -48 130 -22 399 -38 461 -26 l37 7 -2 181 -3 182
-48 12 c-182 46 -319 198 -391 434 -64 209 -59 57 -63 2253 l-4 1997 256 0
255 0 0 160 0 160 -255 0 -255 0 -2 718 -3 718 -95 -19z"/>
<path d="M53980 55250 l0 -150 90 0 90 0 0 150 0 150 -90 0 -90 0 0 -150z"/>
<path d="M56734 55250 c0 -85 2 -120 3 -77 2 42 2 112 0 155 -1 42 -3 7 -3
-78z"/>
<path d="M44890 54870 c-196 -24 -405 -83 -572 -162 l-108 -51 0 -218 0 -218
42 15 c123 43 308 55 466 29 386 -63 622 -332 722 -824 39 -191 41 -311 37
-1796 -3 -1332 -4 -1435 -21 -1505 -50 -210 -134 -316 -288 -365 -71 -22 -234
-45 -323 -45 l-45 0 0 -160 0 -160 355 0 355 0 -2 2717 -3 2718 -70 13 c-88
16 -445 24 -545 12z"/>
<path d="M83000 54869 c-196 -22 -412 -83 -587 -164 l-93 -44 0 -215 c0 -119
3 -216 8 -216 4 0 41 9 82 20 164 44 384 36 554 -21 114 -38 193 -86 280 -168
138 -133 224 -297 285 -551 52 -211 52 -220 49 -1830 l-3 -1495 -23 -80 c-75
-267 -195 -349 -539 -371 l-113 -7 0 -158 0 -159 360 0 360 0 0 2714 c0 2660
0 2715 -19 2721 -94 29 -431 43 -601 24z"/>
<path d="M93143 54873 l-43 -4 0 -170 c0 -93 3 -169 7 -169 3 0 45 7 92 16
110 21 364 15 461 -11 156 -41 317 -143 410 -261 l45 -57 3 294 c2 210 -1 295
-9 300 -12 7 -92 21 -264 45 -108 15 -609 27 -702 17z"/>
<path d="M107890 54721 l0 -159 193 -5 c211 -5 306 -23 459 -86 153 -64 316
-195 421 -340 l47 -63 0 340 0 340 -32 11 c-241 76 -572 121 -900 121 l-188 0
0 -159z"/>
<path d="M50850 54694 l1 -179 77 -37 c236 -113 395 -367 456 -728 29 -172 37
-376 34 -840 l-3 -455 -240 -7 c-132 -4 -259 -10 -282 -13 l-43 -6 0 -176 0
-176 68 7 c179 17 316 26 405 26 l97 0 0 -566 0 -566 -31 -107 c-95 -327 -227
-562 -426 -758 l-113 -112 0 -195 c0 -108 3 -196 6 -196 3 0 43 29 88 64 125
98 275 259 356 382 67 101 180 317 180 343 0 6 3 11 8 11 4 0 16 -39 26 -87
41 -204 125 -414 223 -562 54 -81 221 -261 243 -261 7 0 9 834 8 2533 l-3
2532 -122 61 c-247 124 -609 218 -924 241 l-89 6 0 -179z"/>
<path d="M62941 54694 l0 -179 87 -42 c186 -89 319 -260 400 -513 72 -226 84
-372 80 -1005 l-3 -500 -240 -7 c-132 -4 -259 -10 -282 -13 l-43 -6 0 -176 0
-176 68 7 c157 15 323 26 410 26 l92 0 0 -580 0 -580 -50 -153 c-105 -319
-260 -571 -451 -733 l-69 -58 0 -204 0 -204 38 28 c251 187 404 370 543 651
l66 133 32 -132 c53 -217 119 -376 219 -526 40 -61 168 -201 214 -234 l28 -19
0 2534 0 2535 -112 55 c-141 69 -274 119 -426 158 -150 39 -376 77 -503 86
l-99 6 1 -179z"/>
<path d="M37600 54555 l0 -155 70 0 70 0 0 155 0 155 -70 0 -70 0 0 -155z"/>
<path d="M39010 52060 l0 -2650 295 0 295 0 0 2650 0 2650 -295 0 -295 0 0
-2650z"/>
<path d="M41160 54555 l0 -155 150 0 150 0 0 155 0 155 -150 0 -150 0 0 -155z"/>
<path d="M70060 54555 l0 -155 210 0 210 0 0 155 0 155 -210 0 -210 0 0 -155z"/>
<path d="M79260 54555 l0 -155 150 0 150 0 0 155 0 155 -150 0 -150 0 0 -155z"/>
<path d="M96420 54555 l0 -155 110 0 110 0 0 155 0 155 -110 0 -110 0 0 -155z"/>
<path d="M101570 54555 l0 -155 70 0 70 0 0 155 0 155 -70 0 -70 0 0 -155z"/>
<path d="M102970 52060 l0 -2650 300 0 300 0 0 2650 0 2650 -300 0 -300 0 0
-2650z"/>
<path d="M86170 54510 l0 -160 95 0 95 0 0 160 0 160 -95 0 -95 0 0 -160z"/>
<path d="M99520 54622 c-311 -158 -584 -403 -781 -701 l-69 -104 0 -361 1
-361 34 111 c140 454 406 798 685 885 74 23 125 20 186 -11 20 -11 39 -18 41
-16 2 1 2 139 1 305 l-3 302 -95 -49z"/>
<path d="M69846 53329 l-626 -591 0 -486 0 -486 628 -1059 627 -1059 3 1258 2
1257 -242 396 c-132 218 -243 403 -245 411 -3 9 89 103 242 248 l245 233 0
235 c0 129 -2 234 -4 234 -2 0 -285 -266 -630 -591z"/>
<path d="M105471 53275 c-118 -280 -183 -545 -212 -865 -15 -168 -6 -568 16
-730 36 -263 93 -489 179 -705 l51 -130 3 628 c1 345 1 909 0 1255 l-3 627
-34 -80z"/>
<path d="M90887 53236 c-78 -203 -139 -452 -174 -711 -25 -187 -25 -704 0
-900 36 -277 98 -538 179 -745 l33 -85 3 638 c1 351 1 923 0 1270 l-3 632 -38
-99z"/>
<path d="M56730 51787 l0 -1497 82 -180 81 -180 -79 -178 -79 -177 -2 -405 -3
-405 30 47 c156 248 345 612 473 913 42 99 220 549 397 1000 l320 819 -2 513
-3 514 -215 -542 c-118 -297 -217 -542 -221 -544 -3 -3 -180 402 -392 898
l-386 902 -1 -1498z"/>
<path d="M33371 51370 l-1 -1846 43 -41 c99 -96 245 -133 523 -133 116 0 133
2 139 18 3 9 179 497 391 1084 l384 1068 0 647 -1 648 -312 -872 c-172 -479
-315 -869 -319 -865 -3 4 -187 466 -408 1027 -221 561 -410 1040 -420 1065
-19 44 -19 6 -19 -1800z"/>
<path d="M94065 52582 c-134 -88 -345 -123 -747 -126 l-218 -1 0 -166 0 -167
268 -7 c227 -7 740 0 749 9 2 2 2 113 1 247 l-3 244 -50 -33z"/>
<path d="M48373 51483 c-120 -184 -182 -367 -203 -608 -19 -211 13 -486 80
-686 33 -99 115 -266 155 -315 l24 -29 1 858 c0 471 -1 857 -3 857 -2 0 -26
-35 -54 -77z"/>
<path d="M60459 51468 c-132 -206 -199 -449 -199 -725 0 -323 85 -640 229
-853 l31 -45 0 853 c0 468 -2 852 -4 852 -2 0 -28 -37 -57 -82z"/>
<path d="M108950 50062 c-109 -168 -274 -308 -438 -370 -156 -60 -285 -82
-484 -82 l-138 0 0 -160 0 -160 119 0 c213 0 491 29 686 71 134 29 306 81 311
93 2 6 3 165 2 352 l-3 341 -55 -85z"/>
<path d="M93100 49541 l0 -231 28 -7 c46 -13 569 -8 677 5 111 15 271 40 298
48 15 5 17 22 17 175 0 158 -1 170 -17 165 -117 -36 -345 -56 -524 -45 -160
10 -293 43 -466 116 -10 4 -13 -45 -13 -226z"/>
<path d="M41283 49737 l-123 -10 0 -159 0 -158 150 0 150 0 0 170 0 170 -27
-2 c-16 -1 -83 -6 -150 -11z"/>
<path d="M79388 49737 l-128 -10 0 -158 0 -159 150 0 150 0 0 170 0 170 -22
-2 c-13 -1 -80 -6 -150 -11z"/>
<path d="M66333 49733 l-83 -4 0 -159 0 -160 145 0 145 0 0 165 0 165 -62 -2
c-35 -1 -100 -4 -145 -5z"/>
<path d="M75150 49575 l0 -165 85 0 85 0 0 165 0 165 -85 0 -85 0 0 -165z"/>
<path d="M96493 49733 l-73 -4 0 -159 0 -160 110 0 110 0 0 165 0 165 -37 -2
c-21 -1 -71 -4 -110 -5z"/>
<path d="M37600 49570 l0 -160 70 0 70 0 0 160 0 160 -70 0 -70 0 0 -160z"/>
<path d="M69220 49570 l0 -160 120 0 120 0 0 45 c0 154 -69 246 -202 269 l-38
7 0 -161z"/>
<path d="M98670 49570 l0 -160 475 0 476 0 -3 152 -3 153 -30 6 c-16 4 -229 7
-472 8 l-443 1 0 -160z"/>
<path d="M101570 49570 l0 -160 70 0 70 0 0 160 0 160 -70 0 -70 0 0 -160z"/>
<path d="M54115 48984 c-239 -159 -302 -494 -143 -763 18 -30 67 -89 108 -130
l75 -76 3 253 c1 139 1 363 0 498 l-3 244 -40 -26z"/>
<path d="M59760 47112 l0 -189 5807 -6 c3193 -4 7556 -7 9695 -7 l3888 0 0
195 0 195 -9695 0 -9695 0 0 -188z"/>
<path d="M64453 46392 l-33 -3 0 -178 0 -178 108 -6 c118 -6 228 -35 320 -86
l52 -29 0 207 0 208 -57 17 c-122 35 -299 57 -390 48z"/>
<path d="M95555 46393 c-33 -2 -75 -5 -92 -8 l-33 -6 0 -186 c0 -172 1 -185
18 -178 55 22 319 15 387 -11 13 -5 15 19 15 184 l0 191 -52 5 c-76 8 -174 11
-243 9z"/>
<path d="M106893 46392 l-33 -3 0 -178 0 -178 108 -6 c118 -6 228 -35 320 -86
l52 -29 0 208 0 209 -57 16 c-113 33 -301 56 -390 47z"/>
<path d="M100340 46216 l0 -176 48 0 c64 -1 185 -23 255 -48 l57 -21 -2 192
-3 192 -65 12 c-36 6 -116 15 -177 19 l-113 7 0 -177z"/>
<path d="M43991 46078 l0 -293 22 52 c12 29 26 52 30 50 6 -2 397 -892 397
-904 0 -2 -101 -3 -225 -3 l-225 0 0 -175 0 -175 235 0 235 0 0 611 0 610
-112 259 -113 259 -122 1 -123 0 1 -292z"/>
<path d="M76631 46073 l1 -298 25 58 c15 31 29 57 32 57 7 0 379 -857 389
-892 4 -17 -10 -18 -222 -18 l-226 0 0 -175 0 -175 240 0 240 0 0 608 0 607
-114 260 -113 260 -127 3 -126 3 1 -298z"/>
<path d="M45960 45220 l0 -1140 45 0 45 0 0 1140 0 1140 -45 0 -45 0 0 -1140z"/>
<path d="M50180 45220 c0 -753 3 -1140 10 -1140 7 0 10 387 10 1140 0 753 -3
1140 -10 1140 -7 0 -10 -387 -10 -1140z"/>
<path d="M50370 45220 l0 -1140 40 0 40 0 0 1140 0 1140 -40 0 -40 0 0 -1140z"/>
<path d="M51510 45220 l0 -1140 50 0 50 0 0 1140 0 1140 -50 0 -50 0 0 -1140z"/>
<path d="M54250 46175 l0 -185 45 0 45 0 0 185 0 185 -45 0 -45 0 0 -185z"/>
<path d="M55120 45220 l0 -1140 125 0 125 0 0 955 0 955 65 0 65 0 0 185 0
185 -190 0 -190 0 0 -1140z"/>
<path d="M56850 45220 l0 -1140 40 0 40 0 0 1140 0 1140 -40 0 -40 0 0 -1140z"/>
<path d="M57660 46180 l0 -180 170 0 170 0 0 180 0 180 -170 0 -170 0 0 -180z"/>
<path d="M59360 45220 l0 -1140 45 0 45 0 0 1140 0 1140 -45 0 -45 0 0 -1140z"/>
<path d="M60270 46183 l0 -180 98 -7 c107 -7 196 -27 254 -57 l38 -20 -2 203
-3 203 -65 12 c-36 6 -122 15 -192 19 l-128 7 0 -180z"/>
<path d="M62060 45220 c0 -753 3 -1140 10 -1140 7 0 10 387 10 1140 0 753 -3
1140 -10 1140 -7 0 -10 -387 -10 -1140z"/>
<path d="M62250 45220 l0 -1140 40 0 40 0 0 1140 0 1140 -40 0 -40 0 0 -1140z"/>
<path d="M66490 45220 l0 -1140 45 0 45 0 0 1140 0 1140 -45 0 -45 0 0 -1140z"/>
<path d="M67400 46183 l0 -180 100 -7 c110 -8 190 -26 251 -56 l39 -21 -2 203
-3 203 -65 12 c-36 6 -122 15 -192 19 l-128 7 0 -180z"/>
<path d="M70310 46175 l0 -185 40 0 40 0 0 185 0 185 -40 0 -40 0 0 -185z"/>
<path d="M71180 45220 l0 -1140 125 0 125 0 0 955 0 955 60 0 60 0 0 185 0
185 -185 0 -185 0 0 -1140z"/>
<path d="M72900 45220 l0 -1140 45 0 45 0 0 1140 0 1140 -45 0 -45 0 0 -1140z"/>
<path d="M78150 46175 l0 -185 40 0 40 0 0 185 0 185 -40 0 -40 0 0 -185z"/>
<path d="M79020 45220 l0 -1140 125 0 125 0 0 955 0 955 60 0 60 0 0 185 0
185 -185 0 -185 0 0 -1140z"/>
<path d="M82050 45220 l0 -1140 45 0 45 0 0 1140 0 1140 -45 0 -45 0 0 -1140z"/>
<path d="M82960 46183 l0 -180 100 -7 c110 -8 190 -26 251 -56 l39 -21 -2 203
-3 203 -65 12 c-36 6 -122 15 -192 19 l-128 7 0 -180z"/>
<path d="M84730 45220 l0 -1140 40 0 40 0 0 1140 0 1140 -40 0 -40 0 0 -1140z"/>
<path d="M85540 46180 l0 -180 170 0 170 0 0 180 0 180 -170 0 -170 0 0 -180z"/>
<path d="M87240 45220 l0 -1140 40 0 40 0 0 1140 0 1140 -40 0 -40 0 0 -1140z"/>
<path d="M88040 46180 l0 -180 170 0 170 0 0 180 0 180 -170 0 -170 0 0 -180z"/>
<path d="M89700 45220 l0 -1140 35 0 35 0 0 1140 0 1140 -35 0 -35 0 0 -1140z"/>
<path d="M92040 45220 l0 -1140 40 0 40 0 0 1140 0 1140 -40 0 -40 0 0 -1140z"/>
<path d="M92850 46180 l0 -180 170 0 170 0 0 180 0 180 -170 0 -170 0 0 -180z"/>
<path d="M97110 46175 l0 -185 45 0 45 0 0 185 0 185 -45 0 -45 0 0 -185z"/>
<path d="M97990 45220 l0 -1140 120 0 120 0 0 955 0 955 65 0 65 0 0 185 0
185 -185 0 -185 0 0 -1140z"/>
<path d="M103186 46288 c26 -40 48 -75 50 -77 2 -2 4 30 4 72 l0 77 -50 0 -50
0 46 -72z"/>
<path d="M108890 45673 c0 -785 6 -877 69 -1053 l20 -55 0 898 1 897 -45 0
-45 0 0 -687z"/>
<path d="M104440 45645 c-100 -157 -185 -287 -190 -290 -5 -3 -18 11 -30 30
-12 19 -24 35 -26 35 -2 0 -4 -301 -4 -670 l0 -670 125 0 125 0 0 453 0 452
95 144 95 144 0 329 c0 180 -2 328 -4 328 -2 0 -86 -128 -186 -285z"/>
<path d="M105813 45644 c-52 -130 -76 -266 -76 -429 0 -163 24 -299 76 -429
l32 -81 3 258 c1 142 1 372 0 510 l-3 252 -32 -81z"/>
<path d="M63370 45643 c-103 -274 -102 -592 3 -863 l26 -65 0 493 c1 270 -1
492 -3 492 -3 0 -14 -26 -26 -57z"/>
<path d="M94508 45604 c-42 -128 -60 -244 -60 -389 0 -145 18 -261 60 -389
l27 -81 3 232 c1 127 1 339 0 470 l-3 238 -27 -81z"/>
<path d="M52450 45310 l0 -305 186 -240 c102 -132 192 -247 200 -255 12 -12
14 25 14 290 l0 305 -186 240 c-102 132 -192 247 -200 255 -12 12 -14 -25 -14
-290z"/>
<path d="M46900 45299 l0 -305 186 -240 c102 -131 189 -243 195 -249 5 -5 9
107 9 297 l0 305 -181 234 c-99 129 -187 241 -195 249 -12 12 -14 -27 -14
-291z"/>
<path d="M100340 45251 l0 -200 38 -10 c20 -5 66 -17 101 -26 35 -9 99 -29
143 -45 l78 -29 0 205 0 204 -26 10 c-14 6 -88 26 -164 45 -75 19 -145 37
-154 41 -14 6 -16 -13 -16 -195z"/>
<path d="M73800 45225 l0 -185 190 0 190 0 0 185 0 185 -190 0 -190 0 0 -185z"/>
<path d="M57660 45225 l0 -175 170 0 170 0 0 175 0 175 -170 0 -170 0 0 -175z"/>
<path d="M85540 45225 l0 -175 170 0 170 0 0 175 0 175 -170 0 -170 0 0 -175z"/>
<path d="M92850 45225 l0 -175 170 0 170 0 0 175 0 175 -170 0 -170 0 0 -175z"/>
<path d="M88040 45190 l0 -180 170 0 170 0 0 180 0 180 -170 0 -170 0 0 -180z"/>
<path d="M60610 45283 c-69 -35 -155 -53 -252 -53 l-88 0 0 -186 0 -185 193
-274 192 -273 3 249 c1 137 1 361 0 497 l-3 248 -45 -23z"/>
<path d="M67740 45283 c-71 -35 -157 -53 -252 -53 l-88 0 0 -185 0 -185 193
-273 192 -274 3 249 c1 136 1 359 0 496 l-3 247 -45 -22z"/>
<path d="M83291 45279 c-70 -35 -144 -49 -248 -49 l-83 0 0 -184 0 -184 193
-273 192 -273 3 253 c1 139 1 361 0 494 l-3 242 -54 -26z"/>
<path d="M64815 44479 c-97 -47 -191 -69 -307 -69 l-88 0 0 -187 0 -186 108 6
c113 7 220 24 315 52 l57 16 0 205 c0 112 -1 204 -2 203 -2 0 -39 -18 -83 -40z"/>
<path d="M107267 44484 c-95 -49 -201 -74 -314 -74 l-93 0 0 -187 0 -186 108
6 c111 7 228 26 319 52 l53 16 0 204 c0 113 -1 205 -2 204 -2 0 -33 -16 -71
-35z"/>
<path d="M99548 44456 l-38 -44 38 -33 37 -33 3 37 c2 20 2 55 0 77 l-3 41
-37 -45z"/>
<path d="M110147 44468 c-72 -36 -170 -58 -264 -58 l-73 0 0 -181 0 -181 128
4 c70 3 160 13 200 22 l72 18 0 204 c0 112 -1 203 -2 202 -2 0 -29 -14 -61
-30z"/>
<path d="M90450 44260 l0 -180 160 0 160 0 0 180 0 180 -160 0 -160 0 0 -180z"/>
<path d="M100645 44422 c-29 -11 -78 -16 -172 -16 l-133 -1 0 -179 0 -179 153
6 c83 4 164 9 180 13 l27 6 0 184 c0 101 -3 183 -7 183 -5 -1 -26 -8 -48 -17z"/>
<path d="M57660 44255 l0 -175 170 0 170 0 0 175 0 175 -170 0 -170 0 0 -175z"/>
<path d="M85540 44255 l0 -175 170 0 170 0 0 175 0 175 -170 0 -170 0 0 -175z"/>
<path d="M92850 44255 l0 -175 170 0 170 0 0 175 0 175 -170 0 -170 0 0 -175z"/>
<path d="M95430 44240 l0 -188 96 -7 c88 -7 174 -3 282 11 l42 6 0 185 0 185
-27 -6 c-50 -13 -307 -18 -350 -8 l-43 10 0 -188z"/>
<path d="M75563 44200 l-52 -120 55 0 54 0 0 120 c0 66 -1 120 -2 120 -2 0
-26 -54 -55 -120z"/>
<path d="M42917 44201 c-26 -60 -47 -112 -47 -115 0 -3 23 -6 50 -6 l50 0 0
115 c0 63 -1 115 -3 115 -1 0 -24 -49 -50 -109z"/>
<path d="M59760 43355 l0 -205 3688 0 c2029 0 6383 3 9675 7 l5987 6 0 199 0
198 -9675 0 -9675 0 0 -205z"/>
<path d="M14160 43345 l0 -200 2220 -4 2220 -4 0 208 0 208 -2220 -4 -2220 -4
0 -200z"/>
</g>
</svg>
